<?xml version="1.0" encoding="iso-8859-1"?>
<!-- Generator: Adobe Illustrator 19.0.0, SVG Export Plug-In . SVG Version: 6.00 Build 0)  -->
<svg version="1.1" id="Layer_1" xmlns="http://www.w3.org/2000/svg" xmlns:xlink="http://www.w3.org/1999/xlink" x="0px" y="0px"
	 viewBox="0 0 511.999 511.999" style="enable-background:new 0 0 511.999 511.999;" xml:space="preserve" fill="rgb(221, 221, 221)">
<g>
	<g>
		<path d="M507.081,104.909c0,0-96.157-96.157-100.027-100.027c-6.51-6.51-17.066-6.51-23.576,0c-6.511,6.51-6.511,17.066,0,23.576
			l14.648,14.648L278.853,162.38c-29.97,29.971-50.472,29.855-171.291,57.679c-0.101,0.023-0.202,0.048-0.302,0.072
			c-38.678,9.669-71.78,36.708-90.821,74.182c-19.381,38.141-21.699,81.684-6.365,119.462
			c27.998,68.974,88.22,102.212,150.344,97.842c65.553-4.618,118.5-50.191,131.492-107.242
			c26.919-117.708,27.153-140.746,57.432-171.026c2.801-2.801,117.438-117.438,119.513-119.513l14.649,14.65
			c6.511,6.511,17.066,6.511,23.576,0C513.592,121.976,513.592,111.42,507.081,104.909z M259.446,396.773
			c-13.168,52.354-60.382,78.698-101.37,81.584c-52.225,3.677-96.013-25.153-117.108-77.123c-11.7-28.826-9.806-62.292,5.196-91.818
			c14.64-28.812,39.799-49.546,69.04-56.903c41.958-9.663,71.653-15.87,95.062-21.546L93.651,347.582
			c-6.505-4.583-15.549-3.982-21.368,1.837c-6.511,6.51-6.511,17.066,0,23.576l66.685,66.685c6.511,6.511,17.066,6.511,23.576,0
			c5.82-5.819,6.422-14.863,1.837-21.368L280.743,301.95C275.11,325.392,268.989,355.031,259.446,396.773z M141.591,393.949
			l-23.577-23.577l142.535-142.533l23.576,23.577L141.591,393.949z M307.702,227.839l-23.576-23.577
			c28.284-28.284,6.135-6.137,37.55-37.552l23.577,23.578C343.085,192.455,312.032,223.509,307.702,227.839z M368.828,166.711
			l-23.577-23.577l26.437-26.437l23.576,23.577L368.828,166.711z M418.842,116.698L395.265,93.12l26.437-26.437l23.576,23.576
			L418.842,116.698z"/>
	</g>
</g>
<g>
</g>
<g>
</g>
<g>
</g>
<g>
</g>
<g>
</g>
<g>
</g>
<g>
</g>
<g>
</g>
<g>
</g>
<g>
</g>
<g>
</g>
<g>
</g>
<g>
</g>
<g>
</g>
<g>
</g>
</svg>
